<?xml version="1.0" encoding="UTF-8"?>
<svg t="1631895875325" class="icon" viewBox="0 0 1024 1024" version="1.1" xmlns="http://www.w3.org/2000/svg" p-id="1281" width="200" height="200"><path d="M284.416 236.373333C221.610667 236.373333 170.666667 183.466667 170.666667 118.101333S221.610667 0 284.416 0c62.890667 0 113.834667 52.906667 113.834667 118.186667 0 65.194667-50.944 118.101333-113.834667 118.101333z m0 393.813334C221.610667 630.186667 170.666667 577.28 170.666667 512s50.944-118.186667 113.749333-118.186667c62.890667 0 113.834667 52.906667 113.834667 118.186667S347.306667 630.186667 284.416 630.186667z m455.168-393.898667c-62.890667 0-113.834667-52.906667-113.834667-118.101333C625.749333 52.906667 676.693333 0 739.584 0 802.389333 0 853.333333 52.906667 853.333333 118.186667c0 65.194667-50.944 118.101333-113.749333 118.101333z m0 393.898667c-62.890667 0-113.834667-52.906667-113.834667-118.186667s50.944-118.186667 113.834667-118.186667C802.389333 393.813333 853.333333 446.72 853.333333 512s-50.944 118.186667-113.749333 118.186667zM284.416 1024C221.610667 1024 170.666667 971.093333 170.666667 905.813333c0-65.194667 50.944-118.101333 113.749333-118.101333 62.890667 0 113.834667 52.906667 113.834667 118.101333C398.250667 971.093333 347.306667 1024 284.416 1024z m455.168 0c-62.890667 0-113.834667-52.906667-113.834667-118.186667 0-65.194667 50.944-118.101333 113.834667-118.101333 62.805333 0 113.749333 52.906667 113.749333 118.101333C853.333333 971.093333 802.389333 1024 739.584 1024z" p-id="1282"></path></svg>